<?xml version="1.0" encoding="UTF-8"?>
<svg id="Layer_2" data-name="Layer 2" xmlns="http://www.w3.org/2000/svg" viewBox="0 0 132.99 132.99">
  <defs>
    <style>
      .cls-1 {
        fill: #fff;
      }

      .cls-2 {
        fill: #f05e25;
      }
    </style>
  </defs>
  <g id="Layer_1-2" data-name="Layer 1">
    <g>
      <rect class="cls-1" width="132.99" height="132.99"/>
      <g>
        <path class="cls-2" d="m59.37,66.47c0-3.88,3.16-7.04,7.04-7.04s7.05,3.16,7.05,7.04-3.16,7.04-7.05,7.04-7.04-3.14-7.04-7.04"/>
        <path class="cls-2" d="m0,132.99h132.99V0H0v132.99Zm58.65-7.39l-10.83-10.83,7.86-7.88-37.38-37.4h18.09c2.28,0,4.46.9,6.07,2.52l24.03,24.03,24.05-24.03c1.6-1.62,3.79-2.52,6.07-2.52h18.08l-56.04,56.1Zm-4.84-57.95c-1.62-.32-3.22-.69-4.84-1.02,1.62-.39,3.22-.8,4.83-1.2.85-.2,1.67-.39,2.54-.62.69-4.28,4.03-7.65,8.31-8.4h.01c.17-.84.38-1.67.57-2.51.39-1.67.77-3.38,1.15-5.06.39,1.67.81,3.39,1.19,5.06.19.84.39,1.67.59,2.5h.01c4.25.73,7.61,4.09,8.34,8.35.84.18,1.67.36,2.49.54,1.69.37,3.36.71,5.03,1.08-1.67.41-3.34.82-5.03,1.24-.82.19-1.66.4-2.49.61-.1.58-.26,1.15-.46,1.69-.08.25-.19.53-.31.78-.11.24-.22.46-.34.69-.11.19-.23.39-.35.59-.14.22-.3.45-.46.65-.01.04-.03.07-.07.11-.19.24-.39.46-.58.69-.39.45-.84.84-1.31,1.2-.16.13-.35.27-.53.39-.2.12-.39.24-.58.36-.21.12-.42.23-.65.34-.19.08-.38.18-.58.26-.4.16-.81.3-1.24.42-.01,0-.04.01-.05.01-.28.07-.55.12-.84.17-.2.85-.42,1.7-.61,2.54-.38,1.69-.79,3.37-1.19,5.07-.38-1.7-.76-3.38-1.15-5.07-.19-.85-.39-1.7-.58-2.55-.28-.04-.54-.09-.81-.16-.32-.08-.66-.19-.98-.31-.31-.11-.62-.24-.93-.4-.2-.11-.4-.2-.61-.31-.18-.12-.38-.24-.55-.36-.03,0-.04-.01-.05-.01-.18-.13-.35-.26-.5-.38-.47-.37-.9-.76-1.31-1.2-.19-.23-.39-.45-.57-.69-.04-.04-.07-.07-.08-.11-.16-.2-.32-.43-.45-.65-.14-.2-.26-.4-.36-.59-.1-.2-.2-.4-.3-.62-.03-.05-.05-.09-.07-.15-.11-.22-.19-.45-.27-.66,0-.03-.01-.05-.03-.07-.2-.52-.35-1.08-.43-1.66h0c-.85-.18-1.7-.36-2.54-.55m42.79-4.15c-2.28,0-4.46-.9-6.07-2.52-6.07-6.07-12.14-12.12-18.19-18.19-1,.63-1.98,1.27-2.97,1.9-1.77-1.77-3.53-3.55-5.3-5.31-11.61,11.72-20.13,20.19-21.62,21.61-.31.31-1.32,1.25-2.78,1.86-1.04.43-2.16.66-3.29.66h-18.09L74.34,7.39l10.83,10.83-7.86,7.88,37.38,37.4h-18.08Z"/>
      </g>
    </g>
  </g>
</svg>