<?xml version="1.0" encoding="UTF-8"?>
<svg id="Layer_2" data-name="Layer 2" xmlns="http://www.w3.org/2000/svg" viewBox="0 0 510.38 134.62">
  <defs>
    <style>
      .cls-1 {
        fill: #f05e25;
      }

      .cls-2 {
        fill: #01283f;
      }
    </style>
  </defs>
  <g id="Layer_1-2" data-name="Layer 1">
    <g>
      <path class="cls-2" d="m156.78,134.62h353.6v-38.89H156.78v38.89Zm35.35-7.76h-4.36v-9.88h-11.54v9.88h-4.36v-23.37h4.36v9.54h11.54v-9.54h4.36v23.37Zm31.37,0h-4.37v-23.37h4.37v23.37Zm47.57,0l-.04-14.61-7.08,11.92h-2.13l-7.09-11.82v14.51h-4.23v-23.37h3.53l8.91,15.01,8.8-15.01h3.52l.03,23.37h-4.22Zm48.01,0l-3.69-8.43-4.25-9.64-4.26,9.64-1.1,2.53-2.59,5.9h-4.58l10.6-23.37h3.89l10.62,23.37h-4.65Zm44.34,0h-16.38v-23.37h4.37v19.42h12v3.95Zm40.76,0l-2.58-5.9-5.35-12.15-4.25,9.62-3.69,8.43h-4.59l10.59-23.37h3.89l10.63,23.37h-4.66Zm37.65-8.09v8.09h-4.33v-8.16l-9.27-15.21h4.79l6.76,11.15,6.79-11.15h4.54l-9.29,15.28Zm49.13,8.09l-2.58-5.9-1.1-2.53-4.26-9.62-7.93,18.05h-4.59l10.59-23.37h3.9l10.62,23.37h-4.66Z"/>
      <path class="cls-2" d="m156.78,134.62h353.6v-38.89H156.78v38.89Zm35.35-7.76h-4.36v-9.88h-11.54v9.88h-4.36v-23.37h4.36v9.54h11.54v-9.54h4.36v23.37Zm31.37,0h-4.37v-23.37h4.37v23.37Zm47.57,0l-.04-14.61-7.08,11.92h-2.13l-7.09-11.82v14.51h-4.23v-23.37h3.53l8.91,15.01,8.8-15.01h3.52l.03,23.37h-4.22Zm48.01,0l-3.69-8.43-4.25-9.64-4.26,9.64-1.1,2.53-2.59,5.9h-4.58l10.6-23.37h3.89l10.62,23.37h-4.65Zm44.34,0h-16.38v-23.37h4.37v19.42h12v3.95Zm40.76,0l-2.58-5.9-5.35-12.15-4.25,9.62-3.69,8.43h-4.59l10.59-23.37h3.89l10.63,23.37h-4.66Zm37.65-8.09v8.09h-4.33v-8.16l-9.27-15.21h4.79l6.76,11.15,6.79-11.15h4.54l-9.29,15.28Zm49.13,8.09l-2.58-5.9-1.1-2.53-4.26-9.62-7.93,18.05h-4.59l10.59-23.37h3.9l10.62,23.37h-4.66Z"/>
      <path class="cls-1" d="m272.12,72.06h47.08v16.06h-66.97V1.63h65.36v16.06h-45.47v54.37Zm-1.48-35.71h41.64v15.69h-41.64v-15.69Z"/>
      <path class="cls-1" d="m429.17,88.12L392.37,1.65h-18.76l-36.47,86.47h36.37c-.43-4.03.39-8.51.48-9.03,6.23-.01,12.45-.04,18.69-.05.08,1,.47,5.24.11,9.09h36.37Zm-36.95-16.69c-3.16.04-6.35.07-9.55.08-2.65.01-5.29.01-7.9,0-2.24-6.51-3.07-12.03-3.41-15.75-.74-7.92-1.61-17.33,4.1-24.08.93-1.11,4.61-5.43,8.95-4.88,3.6.47,5.7,3.92,7.42,6.79,2.78,4.62,3.66,9.28,4,13.42.78,9.65-1.28,18.16-3.6,24.42"/>
      <polygon class="cls-1" points="447.12 88.13 447.12 1.63 467.26 1.63 467.26 71.82 510.38 71.82 510.38 88.13 447.12 88.13"/>
      <path class="cls-1" d="m59.37,68.11c0-3.88,3.16-7.04,7.04-7.04s7.05,3.16,7.05,7.04-3.16,7.04-7.05,7.04-7.04-3.14-7.04-7.04"/>
      <path class="cls-1" d="m0,134.62h132.99V1.63H0v132.99Zm58.65-7.39l-10.83-10.83,7.86-7.88-37.38-37.4h18.09c2.28,0,4.46.9,6.07,2.52l24.03,24.03,24.05-24.03c1.6-1.62,3.79-2.52,6.07-2.52h18.08l-56.04,56.1Zm-4.84-57.95c-1.62-.32-3.22-.69-4.84-1.02,1.62-.39,3.22-.8,4.83-1.2.85-.2,1.67-.39,2.54-.62.69-4.28,4.03-7.65,8.31-8.4h.01c.17-.84.38-1.67.57-2.51.39-1.67.77-3.38,1.15-5.06.39,1.67.81,3.39,1.19,5.06.19.84.39,1.67.59,2.5h.01c4.25.73,7.61,4.09,8.34,8.35.84.18,1.67.36,2.49.54,1.69.37,3.36.71,5.03,1.08-1.67.41-3.34.82-5.03,1.24-.82.19-1.66.4-2.49.61-.1.58-.26,1.15-.46,1.69-.08.25-.19.53-.31.78-.11.24-.22.46-.34.69-.11.19-.23.39-.35.59-.14.22-.3.45-.46.65-.01.04-.03.07-.07.11-.19.24-.39.46-.58.69-.39.45-.84.84-1.31,1.2-.16.13-.35.27-.53.39-.2.12-.39.24-.58.36-.21.12-.42.23-.65.34-.19.08-.38.18-.58.26-.4.16-.81.3-1.24.42-.01,0-.04.01-.05.01-.28.07-.55.12-.84.17-.2.85-.42,1.7-.61,2.54-.38,1.69-.79,3.37-1.19,5.07-.38-1.7-.76-3.38-1.15-5.07-.19-.85-.39-1.7-.58-2.55-.28-.04-.54-.09-.81-.16-.32-.08-.66-.19-.98-.31-.31-.11-.62-.24-.93-.4-.2-.11-.4-.2-.61-.31-.18-.12-.38-.24-.55-.36-.03,0-.04-.01-.05-.01-.18-.13-.35-.26-.5-.38-.47-.37-.9-.76-1.31-1.2-.19-.23-.39-.45-.57-.69-.04-.04-.07-.07-.08-.11-.16-.2-.32-.43-.45-.65-.14-.2-.26-.4-.36-.59-.1-.2-.2-.4-.3-.62-.03-.05-.05-.09-.07-.15-.11-.22-.19-.45-.27-.66,0-.03-.01-.05-.03-.07-.2-.52-.35-1.08-.43-1.66h0c-.85-.18-1.7-.36-2.54-.55m42.79-4.15c-2.28,0-4.46-.9-6.07-2.52-6.07-6.07-12.14-12.12-18.19-18.19-1,.63-1.98,1.27-2.97,1.9-1.77-1.77-3.53-3.55-5.3-5.31-11.61,11.72-20.13,20.19-21.62,21.61-.31.31-1.32,1.25-2.78,1.86-1.04.43-2.16.66-3.29.66h-18.09L74.34,9.02l10.83,10.83-7.86,7.88,37.38,37.4h-18.08Z"/>
      <path class="cls-1" d="m233.02,87.71h-21.4c-4.84-3.98-9.68-7.95-14.51-11.93l-2.66-1.78c-1.1-2.29-2.2-4.58-3.3-6.87-4.09-1.36-8.17-2.73-12.26-4.09v-19.34c1.4,1.62,3.56,3.5,6.25,3.62,3.85.23,5.7-3.29,10.14-3.88,1.86-.23,4.49,0,7.85,2.14v-16.11c-3.35-2.15-5.99-2.38-7.85-2.15-4.44.59-6.29,4.12-10.14,3.89-2.69-.15-4.85-2.04-6.25-3.62h-1.73v35.76c-.46,1.35-.93,2.7-1.39,4.05-1.7,1.61-3.39,3.22-5.09,4.83-1.58,5.16-3.16,10.31-4.74,15.47h-9.15V1.63h37.26c.96,0,1.91.01,2.83.05,6.52.28,12.22,1.51,17.08,3.68,5.59,2.51,9.88,6.09,12.92,10.76,3.04,4.69,4.54,10.23,4.54,16.62s-1.5,12.03-4.54,16.66c-3.04,4.63-7.33,8.15-12.92,10.58-.04.01-.07.03-.11.03l19.17,27.68Z"/>
    </g>
  </g>
</svg>