<?xml version="1.0" encoding="UTF-8"?>
<svg id="Layer_2" data-name="Layer 2" xmlns="http://www.w3.org/2000/svg" viewBox="0 0 277.94 72.42">
  <defs>
    <style>
      .cls-1 {
        fill: #fff;
      }
    </style>
  </defs>
  <g id="Layer_1-2" data-name="Layer 1">
    <g>
      <path class="cls-1" d="m85.38,72.42h192.56v-21.18H85.38v21.18Zm19.25-4.22h-2.38v-5.38h-6.28v5.38h-2.38v-12.73h2.38v5.2h6.28v-5.2h2.38v12.73Zm17.08,0h-2.38v-12.73h2.38v12.73Zm25.91,0l-.02-7.96-3.86,6.49h-1.16l-3.86-6.44v7.9h-2.3v-12.73h1.92l4.85,8.18,4.79-8.18h1.92l.02,12.73h-2.3Zm26.14,0l-2.01-4.59-2.31-5.25-2.32,5.25-.6,1.38-1.41,3.21h-2.5l5.77-12.73h2.12l5.78,12.73h-2.53Zm24.15,0h-8.92v-12.73h2.38v10.58h6.54v2.15Zm22.2,0l-1.41-3.21-2.91-6.62-2.31,5.24-2.01,4.59h-2.5l5.77-12.73h2.12l5.79,12.73h-2.54Zm20.5-4.41v4.41h-2.36v-4.44l-5.05-8.29h2.61l3.68,6.07,3.7-6.07h2.47l-5.06,8.32Zm26.76,4.41l-1.41-3.21-.6-1.38-2.32-5.24-4.32,9.83h-2.5l5.77-12.73h2.12l5.79,12.73h-2.54Z"/>
      <path class="cls-1" d="m85.38,72.42h192.56v-21.18H85.38v21.18Zm19.25-4.22h-2.38v-5.38h-6.28v5.38h-2.38v-12.73h2.38v5.2h6.28v-5.2h2.38v12.73Zm17.08,0h-2.38v-12.73h2.38v12.73Zm25.91,0l-.02-7.96-3.86,6.49h-1.16l-3.86-6.44v7.9h-2.3v-12.73h1.92l4.85,8.18,4.79-8.18h1.92l.02,12.73h-2.3Zm26.14,0l-2.01-4.59-2.31-5.25-2.32,5.25-.6,1.38-1.41,3.21h-2.5l5.77-12.73h2.12l5.78,12.73h-2.53Zm24.15,0h-8.92v-12.73h2.38v10.58h6.54v2.15Zm22.2,0l-1.41-3.21-2.91-6.62-2.31,5.24-2.01,4.59h-2.5l5.77-12.73h2.12l5.79,12.73h-2.54Zm20.5-4.41v4.41h-2.36v-4.44l-5.05-8.29h2.61l3.68,6.07,3.7-6.07h2.47l-5.06,8.32Zm26.76,4.41l-1.41-3.21-.6-1.38-2.32-5.24-4.32,9.83h-2.5l5.77-12.73h2.12l5.79,12.73h-2.54Z"/>
      <path class="cls-1" d="m148.19,38.35h25.64v8.75h-36.47V0h35.6v8.75h-24.76v29.61Zm-.81-19.45h22.68v8.55h-22.68v-8.55Z"/>
      <path class="cls-1" d="m233.71,47.1L213.68,0h-10.22l-19.86,47.09h19.81c-.23-2.19.21-4.63.26-4.92,3.39,0,6.78-.02,10.18-.03.04.55.25,2.85.06,4.95h19.81Zm-20.12-9.09c-1.72.02-3.46.04-5.2.05-1.44,0-2.88,0-4.3,0-1.22-3.55-1.67-6.55-1.86-8.58-.4-4.31-.88-9.44,2.23-13.11.51-.61,2.51-2.96,4.87-2.66,1.96.25,3.11,2.13,4.04,3.7,1.51,2.51,1.99,5.05,2.18,7.3.43,5.25-.7,9.89-1.96,13.3"/>
      <polygon class="cls-1" points="243.49 47.1 243.49 0 254.46 0 254.46 38.22 277.94 38.22 277.94 47.1 243.49 47.1"/>
      <path class="cls-1" d="m32.33,36.2c0-2.11,1.72-3.83,3.83-3.83s3.84,1.72,3.84,3.83-1.72,3.83-3.84,3.83-3.83-1.71-3.83-3.83"/>
      <path class="cls-1" d="m0,72.42h72.42V0H0v72.42Zm31.94-4.03l-5.9-5.9,4.28-4.29-20.36-20.37h9.85c1.24,0,2.43.49,3.3,1.37l13.09,13.09,13.1-13.09c.87-.88,2.06-1.37,3.31-1.37h9.85l-30.52,30.55Zm-2.64-31.56c-.88-.18-1.76-.38-2.64-.56.88-.21,1.75-.43,2.63-.65.46-.11.91-.21,1.38-.34.37-2.33,2.2-4.16,4.52-4.58h0c.1-.46.21-.91.31-1.37.21-.91.42-1.84.62-2.75.21.91.44,1.84.65,2.75.1.46.21.91.32,1.36h0c2.31.4,4.14,2.22,4.54,4.55.46.09.91.2,1.36.29.92.2,1.83.39,2.74.59-.91.22-1.82.45-2.74.67-.45.1-.9.22-1.36.33-.05.32-.14.62-.25.92-.04.14-.1.29-.17.43-.06.13-.12.25-.18.37-.06.1-.12.21-.19.32-.07.12-.16.24-.25.35,0,.02-.01.04-.04.06-.1.13-.21.25-.32.38-.21.24-.46.46-.71.65-.09.07-.19.15-.29.21-.11.07-.21.13-.32.2-.12.07-.23.12-.35.18-.1.04-.21.09-.32.14-.22.09-.44.16-.68.23,0,0-.02,0-.03,0-.15.04-.3.06-.46.09-.11.46-.23.92-.33,1.38-.21.92-.43,1.84-.65,2.76-.21-.93-.41-1.84-.62-2.76-.1-.46-.21-.92-.32-1.39-.15-.02-.29-.05-.44-.09-.18-.04-.36-.1-.54-.17-.17-.06-.34-.13-.51-.22-.11-.06-.22-.11-.33-.17-.1-.06-.21-.13-.3-.2-.01,0-.02,0-.03,0-.1-.07-.19-.14-.27-.21-.26-.2-.49-.41-.71-.65-.1-.12-.21-.24-.31-.38-.02-.02-.04-.04-.04-.06-.09-.11-.18-.23-.24-.35-.07-.11-.14-.22-.2-.32-.05-.11-.11-.22-.16-.34-.01-.03-.03-.05-.04-.08-.06-.12-.1-.24-.15-.36,0-.02,0-.03-.01-.04-.11-.29-.19-.59-.24-.9h0c-.46-.09-.93-.2-1.38-.3m23.3-2.26c-1.24,0-2.43-.49-3.31-1.37-3.3-3.31-6.61-6.6-9.91-9.91-.54.34-1.08.69-1.61,1.04-.96-.96-1.93-1.93-2.89-2.89-6.32,6.38-10.96,11-11.77,11.77-.17.17-.72.68-1.51,1.01-.57.23-1.18.36-1.79.36h-9.85L40.48,4.03l5.9,5.9-4.28,4.29,20.36,20.37h-9.85Z"/>
      <path class="cls-1" d="m126.9,46.87h-11.66c-2.63-2.16-5.27-4.33-7.9-6.49-.48-.32-.97-.65-1.45-.97-.6-1.25-1.2-2.5-1.8-3.74-2.23-.74-4.45-1.48-6.68-2.23v-10.53c.76.88,1.94,1.91,3.4,1.97,2.1.13,3.11-1.79,5.52-2.11,1.01-.13,2.45,0,4.27,1.17v-8.77c-1.83-1.17-3.26-1.29-4.27-1.17-2.42.32-3.43,2.25-5.52,2.12-1.47-.08-2.64-1.11-3.4-1.97h-.94v19.48c-.25.74-.5,1.47-.76,2.21-.92.88-1.85,1.75-2.77,2.63l-2.58,8.42h-4.99V0h20.29c.52,0,1.04,0,1.54.03,3.55.15,6.65.82,9.3,2.01,3.05,1.37,5.38,3.32,7.04,5.86,1.65,2.55,2.47,5.57,2.47,9.05s-.82,6.55-2.47,9.07c-1.65,2.52-3.99,4.44-7.04,5.76-.02,0-.04.02-.06.02,3.48,5.02,6.96,10.05,10.44,15.07"/>
    </g>
  </g>
</svg>